<?xml version="1.0" standalone="no"?>
<!DOCTYPE svg PUBLIC "-//W3C//DTD SVG 20010904//EN"
 "http://www.w3.org/TR/2001/REC-SVG-20010904/DTD/svg10.dtd">
<svg version="1.0" xmlns="http://www.w3.org/2000/svg"
 width="300.000000pt" height="288.000000pt" viewBox="0 0 300.000000 288.000000"
 preserveAspectRatio="xMidYMid meet">

<g transform="translate(0.000000,288.000000) scale(0.100000,-0.100000)"
fill="#000000" stroke="none">
<path d="M1215 2869 c-22 -4 -98 -8 -168 -8 -137 -1 -183 -12 -209 -50 -11
-15 -33 -24 -74 -31 -73 -12 -108 -36 -112 -78 -4 -41 -18 -40 -58 4 -35 37
-59 41 -78 12 -14 -23 2 -66 35 -90 14 -11 50 -22 83 -25 41 -4 65 -12 81 -28
19 -20 36 -24 121 -29 163 -10 244 -24 290 -51 115 -67 113 -209 -3 -301 -27
-21 -62 -51 -79 -66 -29 -27 -31 -28 -47 -10 -22 24 -43 76 -56 144 -20 93
-74 158 -170 204 -39 19 -47 20 -76 8 -40 -16 -72 -8 -162 41 -80 44 -177 122
-262 210 -76 81 -115 100 -171 85 -70 -19 -99 -85 -66 -149 44 -84 236 -207
446 -286 93 -35 120 -52 120 -76 0 -25 -24 -24 -103 2 -74 25 -140 61 -265
146 -59 40 -103 63 -120 63 -61 0 -101 -80 -65 -129 42 -57 169 -110 362 -152
136 -29 181 -48 181 -74 0 -11 -12 -15 -43 -15 -56 0 -120 19 -288 86 -76 30
-144 54 -152 54 -29 0 -60 -36 -60 -68 0 -91 147 -145 398 -146 117 -1 140 -3
140 -16 0 -8 -16 -23 -35 -33 -58 -30 -201 -19 -310 24 -98 38 -155 43 -176
14 -49 -66 26 -140 168 -166 75 -14 142 -5 281 38 64 19 91 23 99 15 19 -19 0
-42 -57 -68 -69 -32 -179 -41 -285 -24 -190 30 -220 25 -220 -32 0 -82 166
-148 300 -119 30 6 94 32 144 56 98 49 117 53 136 30 19 -22 -6 -46 -101 -95
-100 -52 -157 -62 -258 -44 -95 17 -183 18 -199 2 -19 -19 -14 -73 9 -102 52
-66 172 -91 289 -61 80 20 124 46 218 124 67 56 99 71 115 55 25 -25 -114
-159 -220 -211 -71 -35 -76 -36 -227 -42 -176 -7 -196 -15 -196 -79 0 -76 116
-139 240 -130 121 9 165 41 412 301 61 64 93 73 104 31 8 -32 -14 -64 -87
-122 -147 -118 -157 -135 -114 -178 24 -23 32 -26 80 -22 96 8 135 46 187 182
14 35 34 68 51 80 25 18 28 19 43 4 25 -24 10 -62 -45 -122 -74 -78 -77 -126
-9 -126 45 0 92 52 108 120 22 97 54 124 86 75 22 -34 12 -71 -46 -153 -104
-149 -196 -196 -370 -190 l-95 3 -3 -26 c-2 -17 9 -41 38 -76 l40 -51 -51 -17
c-71 -24 -177 -25 -211 -3 -15 10 -43 49 -63 87 -49 93 -69 105 -154 96 -70
-7 -111 -26 -111 -50 0 -10 10 -15 30 -15 22 0 30 -5 30 -18 0 -30 24 -53 60
-61 26 -5 35 -12 35 -26 0 -18 -6 -20 -76 -17 -68 3 -79 1 -103 -20 -40 -34
-69 -165 -38 -175 6 -3 12 2 12 11 0 21 32 37 51 25 29 -18 85 -9 132 22 48
32 81 33 75 2 -2 -9 -27 -31 -57 -48 -30 -18 -60 -40 -68 -50 -15 -22 -18 -91
-3 -100 5 -3 10 -19 10 -36 0 -36 31 -69 67 -69 25 0 25 1 10 18 -25 27 -21
42 11 42 32 0 87 31 100 57 5 10 13 42 17 71 11 82 59 111 79 47 29 -98 45
-113 128 -124 l53 -6 0 -38 c0 -22 5 -37 12 -37 20 0 43 43 43 82 0 20 5 48
11 62 23 49 -20 83 -124 101 -28 4 -37 11 -37 25 0 26 32 45 106 64 86 22 130
20 194 -10 158 -74 171 -70 201 66 16 74 42 123 89 170 68 68 125 50 123 -38
-1 -53 -73 -271 -105 -318 -48 -71 -124 -100 -225 -85 -112 15 -156 -24 -93
-84 27 -25 40 -30 99 -33 88 -5 135 15 219 93 59 55 92 66 92 32 0 -23 -57
-95 -101 -126 -40 -30 -113 -51 -172 -51 -40 0 -77 -24 -77 -50 0 -50 89 -82
167 -61 55 15 126 81 171 160 42 72 65 92 83 74 10 -10 9 -22 0 -55 -13 -42
-46 -79 -161 -180 -48 -42 -50 -70 -8 -101 20 -15 35 -18 62 -13 60 11 90 52
121 166 17 61 34 104 43 107 39 15 56 -84 27 -153 -8 -20 -35 -63 -60 -96 -54
-72 -55 -69 68 -173 l89 -75 89 76 c119 101 120 103 70 168 -59 76 -84 139
-78 193 9 84 48 84 71 1 8 -29 20 -72 26 -95 26 -101 127 -154 184 -97 28 28
19 60 -26 96 -85 67 -135 123 -153 171 -14 37 -15 51 -6 60 18 18 41 -2 88
-79 51 -85 108 -137 168 -154 79 -22 165 6 165 55 0 38 -23 51 -101 59 -87 8
-156 42 -205 102 -33 40 -46 94 -23 94 6 0 38 -25 71 -55 80 -72 129 -95 202
-95 92 0 152 38 144 93 -4 28 -36 35 -118 25 -80 -10 -134 3 -184 44 -45 37
-68 81 -112 215 -49 151 -44 223 15 223 63 0 132 -91 162 -213 32 -128 49
-135 184 -70 79 38 114 40 217 17 119 -27 139 -74 40 -94 -97 -20 -127 -53
-98 -109 9 -16 13 -37 10 -46 -9 -21 15 -74 38 -86 18 -9 19 -7 13 23 -8 45 2
54 63 60 66 6 95 32 115 103 12 42 18 50 38 50 28 0 49 -35 49 -85 0 -49 31
-96 74 -110 20 -6 40 -9 46 -5 16 10 25 -25 11 -46 -10 -17 -8 -19 12 -19 29
0 57 29 57 57 0 11 7 37 15 58 24 57 3 100 -66 136 -41 20 -69 45 -69 60 0 23
34 19 80 -11 50 -32 58 -33 145 -18 13 2 23 -5 30 -20 5 -12 15 -22 22 -22 20
0 25 37 9 69 -9 17 -16 42 -16 56 0 15 -11 36 -27 51 -26 24 -34 25 -108 22
-67 -2 -80 0 -83 13 -2 12 9 21 39 30 41 14 51 24 63 62 3 10 15 17 31 17 32
0 33 24 3 44 -13 8 -53 17 -89 21 -60 6 -68 5 -93 -17 -15 -13 -42 -50 -59
-82 -45 -84 -72 -101 -156 -100 -58 1 -161 27 -161 41 0 2 13 21 29 41 17 20
34 49 40 64 15 41 -3 50 -95 42 -146 -12 -252 33 -340 144 -66 85 -97 152 -85
186 13 32 36 43 56 26 8 -7 24 -44 36 -83 14 -48 31 -80 51 -99 46 -42 108
-34 108 14 0 10 -23 43 -50 74 -59 64 -75 97 -60 125 24 43 66 6 106 -92 39
-95 60 -125 108 -148 59 -29 120 -28 151 4 14 13 25 32 25 41 0 19 -51 69
-139 137 -70 55 -102 106 -81 132 7 8 20 15 28 15 9 0 82 -67 162 -149 179
-183 218 -206 350 -206 94 0 150 21 189 71 27 35 27 85 0 110 -18 16 -43 20
-167 25 -113 5 -159 11 -199 27 -69 26 -173 101 -217 156 -68 82 -32 104 55
34 28 -24 70 -58 93 -75 52 -42 179 -83 254 -83 126 0 242 97 198 165 -14 22
-24 25 -74 25 -31 0 -77 -5 -102 -11 -25 -6 -75 -11 -112 -11 -72 0 -136 23
-230 83 -57 37 -66 56 -34 71 21 9 39 4 123 -35 160 -74 228 -84 329 -46 99
37 142 98 103 145 -15 18 -69 16 -209 -6 -110 -18 -219 -8 -286 25 -58 28 -74
49 -56 67 8 8 35 4 99 -15 139 -43 206 -52 281 -38 76 14 157 52 172 81 19 36
8 83 -23 100 -26 14 -33 13 -140 -25 -102 -37 -121 -40 -212 -40 -79 0 -107 4
-128 18 -18 11 -24 22 -20 33 5 15 19 16 108 11 118 -8 259 11 336 45 54 23
99 68 99 99 0 24 -43 69 -66 69 -9 0 -71 -22 -137 -49 -67 -27 -153 -58 -191
-70 -82 -25 -156 -28 -156 -6 0 25 41 42 165 70 66 14 143 33 170 42 80 25
181 80 205 110 41 52 5 133 -59 133 -16 0 -70 -29 -141 -76 -136 -90 -186
-117 -263 -139 -62 -18 -87 -15 -87 9 0 19 26 33 150 81 192 75 374 196 415
276 35 67 8 129 -67 150 -54 14 -82 -2 -188 -105 -119 -116 -184 -165 -282
-211 -76 -36 -79 -37 -115 -22 -36 14 -40 14 -94 -14 -69 -34 -135 -107 -149
-163 -23 -93 -41 -145 -61 -171 l-22 -26 -36 34 c-20 18 -55 48 -78 65 -48 38
-83 102 -83 156 0 112 116 184 302 187 111 1 176 13 201 37 13 12 36 22 53 22
81 0 144 44 144 100 0 50 -40 48 -89 -4 -27 -28 -54 -35 -45 -11 15 39 -59 95
-125 95 -19 0 -43 11 -64 30 -50 44 -76 50 -215 50 -70 0 -147 5 -171 11 -24
5 -46 7 -49 4 -9 -9 19 -86 34 -92 18 -7 18 -23 0 -23 -10 0 -187 -83 -204
-96 -8 -6 42 -63 64 -73 13 -6 24 -15 24 -21 0 -9 -77 -64 -104 -73 -7 -3 -5
-11 7 -24 23 -27 22 -32 -18 -78 l-34 -40 -35 40 c-41 46 -42 52 -18 78 11 13
13 21 5 24 -23 8 -103 65 -103 74 0 4 10 14 23 20 31 16 67 50 67 64 0 12
-178 105 -203 105 -23 0 -21 5 8 34 23 23 37 88 18 85 -5 -1 -26 -5 -48 -10z
m-260 -101 c36 -16 31 -28 -12 -28 -44 0 -69 13 -59 29 9 14 38 14 71 -1z
m1161 1 c9 -15 -15 -29 -52 -29 -41 0 -50 11 -22 27 29 15 65 17 74 2z m-1371
-89 c16 -7 17 -9 3 -9 -9 -1 -23 -4 -32 -7 -11 -4 -16 -1 -16 10 0 17 14 19
45 6z m1560 -1 c11 -16 1 -20 -35 -12 -29 5 -31 7 -15 14 29 11 43 10 50 -2z
m-1510 -79 c-3 -5 -15 -10 -26 -10 -10 0 -19 5 -19 10 0 6 12 10 26 10 14 0
23 -4 19 -10z m1455 0 c0 -5 -6 -10 -14 -10 -8 0 -18 5 -21 10 -3 6 3 10 14
10 12 0 21 -4 21 -10z"/>
</g>
</svg>
